Coordinates
version=1
nRows=7
nColumns=46
inDegrees=yes

Units are S.I. units (second, meters, Newtons, ...)
Angles are in degrees.

endheader
time	pelvis_tilt	pelvis_list	pelvis_rotation	pelvis_tx	pelvis_ty	pelvis_tz	bb_angle	bb_tx	bb_ty	bb_tz	hip_flexion_r	hip_adduction_r	hip_rotation_r	knee_angle_r	knee_angle_r_beta	ankle_angle_r	subtalar_angle_r	mtp_angle_r	crank_angle_r	hip_flexion_l	hip_adduction_l	hip_rotation_l	knee_angle_l	knee_angle_l_beta	ankle_angle_l	subtalar_angle_l	mtp_angle_l	crank_angle_l	lumbar_extension	lumbar_bending	lumbar_rotation	arm_flex_r	arm_add_r	arm_rot_r	elbow_flex_r	pro_sup_r	wrist_flex_r	wrist_dev_r	arm_flex_l	arm_add_l	arm_rot_l	elbow_flex_l	pro_sup_l	wrist_flex_l	wrist_dev_l
      2.50000000	    -19.63605091	      2.33832960	     16.33498438	      0.00814026	      1.01421135	     -0.22252621	      0.00000000	      0.50000000	      0.00000000	      0.25000000	     50.43601135	    -15.04680939	     -1.37580257	     41.92819489	      0.73178505	    -31.92162201	    -13.82621792	      0.00000000	      0.00000000	     95.38517048	      4.25982820	     -0.94746700	    102.10734787	      1.78210941	     24.48131547	      2.59348054	      0.00000000	      0.00000000	    -48.90880985	     -0.86663272	    -12.35543405	     89.04928258	    -12.87098857	     27.89993703	     31.91308402	     36.96056234	      0.00000000	      0.00000000	     89.76807751	     -2.06091250	     29.61210782	     48.48176299	     31.64025222	      0.00000000	      0.00000000
      2.50500000	    -19.86595536	      2.22876658	     16.31675825	      0.00812968	      1.01430739	     -0.22276196	      0.00000000	      0.50000000	      0.00000000	      0.25000000	     50.79350958	    -14.93263291	     -1.23669371	     42.47128826	      0.74126382	    -31.92536740	    -14.05155524	      0.00000000	      0.00000000	     95.48251211	      4.50519452	     -0.83781667	    101.46412742	      1.77088310	     24.53332266	      2.27834192	      0.00000000	      0.00000000	    -48.93571256	     -0.98014156	    -12.18152269	     88.94908045	    -12.74275137	     25.35613672	     32.33109700	     37.21030486	      0.00000000	      0.00000000	     89.77035668	     -1.72083388	     29.12484295	     48.51081417	     33.46422358	      0.00000000	      0.00000000
      2.51000000	    -19.99134309	      2.13641796	     16.31804543	      0.00823020	      1.01462009	     -0.22301552	      0.00000000	      0.50000000	      0.00000000	      0.25000000	     50.99260527	    -14.84636180	     -1.20419304	     42.96587785	      0.74989603	    -31.98575410	    -14.30023488	      0.00000000	      0.00000000	     95.45643327	      4.79907080	     -0.70196137	    100.80682636	      1.75941103	     24.47696555	      1.80303365	      0.00000000	      0.00000000	    -49.06891393	     -0.99357825	    -12.35544371	     88.98092396	    -12.90562205	     26.18609451	     32.85536118	     36.32619983	      0.00000000	      0.00000000	     89.76795723	     -2.27347619	     29.78219129	     51.04898915	     26.15328690	      0.00000000	      0.00000000
      2.51500000	    -20.17995951	      1.92778577	     16.16417760	      0.00849420	      1.01475278	     -0.22305418	      0.00000000	      0.50000000	      0.00000000	      0.25000000	     51.27725800	    -14.54018946	     -1.13547743	     43.44984234	      0.75834281	    -31.98257653	    -14.62451062	      0.00000000	      0.00000000	     95.52872385	      4.90045699	     -0.44474997	    100.21545972	      1.74908973	     24.55672813	      1.50667807	      0.00000000	      0.00000000	    -49.14848880	     -1.14866622	    -11.76701889	     88.73412680	    -13.18158471	     23.37464759	     34.09915650	     36.30661704	      0.00000000	      0.00000000	     89.77327136	     -1.58064813	     29.36451252	     50.40098698	     30.26551397	      0.00000000	      0.00000000
      2.52000000	    -20.35280001	      1.91212647	     16.19841988	      0.00865302	      1.01499115	     -0.22343585	      0.00000000	      0.50000000	      0.00000000	      0.25000000	     51.55809040	    -14.58207469	     -1.11059076	     44.07780935	      0.76930290	    -31.76576766	    -14.79179331	      0.00000000	      0.00000000	     95.52056878	      5.26340463	     -0.40465714	     99.53759836	      1.73725882	     24.34135025	      0.85280286	      0.00000000	      0.00000000	    -49.23085999	     -1.23150226	    -12.07999582	     88.78964254	    -12.78557935	     23.05946264	     33.86751622	     35.56357250	      0.00000000	      0.00000000	     89.77192651	     -1.96591854	     29.25852370	     50.99329289	     31.46980576	      0.00000000	      0.00000000
      2.52500000	    -20.47451051	      1.89374025	     16.16055864	      0.00885778	      1.01534986	     -0.22375915	      0.00000000	      0.50000000	      0.00000000	      0.25000000	     51.73753229	    -14.54451805	     -1.05190035	     44.58978267	      0.77823852	    -31.52016354	    -14.92070216	      0.00000000	      0.00000000	     95.43859089	      5.57334691	     -0.30047249	     98.85899914	      1.72541503	     24.17314300	      0.24398854	      0.00000000	      0.00000000	    -49.40714678	     -1.29564311	    -12.36878274	     88.81830946	    -12.56925074	     23.30363479	     34.15956310	     35.00292809	      0.00000000	      0.00000000	     89.76864484	     -2.49218663	     29.22288097	     52.09194780	     31.62650749	      0.00000000	      0.00000000
      2.53000000	    -20.63743408	      1.78758033	     16.05750456	      0.00916842	      1.01554430	     -0.22392253	      0.00000000	      0.50000000	      0.00000000	      0.25000000	     51.98082143	    -14.37056867	     -0.93224012	     45.12947039	      0.78765785	    -31.31544405	    -15.12774696	      0.00000000	      0.00000000	     95.42238790	      5.80602026	     -0.10428378	     98.21139205	      1.71411215	     24.06554262	     -0.31864685	      0.00000000	      0.00000000	    -49.52391508	     -1.40576298	    -12.38953588	     88.80223214	    -12.63840835	     23.19544929	     34.44199692	     35.09250624	      0.00000000	      0.00000000	     89.76593863	     -2.74258269	     29.14194397	     53.10886092	     31.61593607	      0.00000000	      0.00000000
